<svg height="375px" version="1.1" width="78px" xmlns="http://www.w3.org/2000/svg" style="overflow: hidden; position: absolute; left: 0px; top: 0px;" xmlns:xlink="http://www.w3.org/1999/xlink"><defs style="-webkit-tap-highlight-color: rgba(0, 0, 0, 0);"><filter id="Sjvrvpbo51p" filterUnits="userSpaceOnUse"><feGaussianBlur stdDeviation="2.5"></feGaussianBlur><feColorMatrix values="0 0 0 0 0 0 0 0 0 0 0 0 0 0 0 0 0 0 0.5 0"></feColorMatrix></filter><linearGradient x1="0" y1="0" x2="1" y2="0" id="linearGradientSjvrvpbo51w"><stop offset="0%" stop-color="#000000" stop-opacity="0.1"></stop><stop offset="75%" stop-color="#000000" stop-opacity="0.1"></stop><stop offset="100%" stop-color="#ffffff" stop-opacity="0"></stop></linearGradient><filter id="Sjvrvpbo522" filterUnits="userSpaceOnUse"><feGaussianBlur stdDeviation="1.5"></feGaussianBlur></filter><mask id="maskSjvrvpbo526"><g fill="#ffffff" style="" class="rhlp-shape" transform="matrix(-1,0,0,1,78,0)"><path d="M 0 10 L 60 10 A 8 8 0 0 1 68 18 L 68 348 A 17 17 0 0 1 34 348 L 0 348 Z" transform="matrix(-1,0,0,1,78,0)" id="pathSjvrvpbo51r"></path></g></mask><path d="M41.638888888888886,326.76425138888885C41.638888888888886,326.76425138888885,40.12777777777778,326.76425138888885,40.12777777777778,326.76425138888885C40.12777777777778,326.76425138888885,40.12777777777778,321.19202916666666,40.12777777777778,321.19202916666666C40.12777777777778,321.19202916666666,33.044444444444444,321.19202916666666,33.044444444444444,321.19202916666666C33.044444444444444,321.19202916666666,33.044444444444444,326.76425138888885,33.044444444444444,326.76425138888885C33.044444444444444,326.76425138888885,31.533333333333335,326.76425138888885,31.533333333333335,326.76425138888885C31.533333333333335,326.76425138888885,31.533333333333335,314.62814027777773,31.533333333333335,314.62814027777773C31.533333333333335,314.62814027777773,33.044444444444444,314.62814027777773,33.044444444444444,314.62814027777773C33.044444444444444,314.62814027777773,33.044444444444444,319.8698069444444,33.044444444444444,319.8698069444444C33.044444444444444,319.8698069444444,40.12777777777778,319.8698069444444,40.12777777777778,319.8698069444444C40.12777777777778,319.8698069444444,40.12777777777778,314.62814027777773,40.12777777777778,314.62814027777773C40.12777777777778,314.62814027777773,41.638888888888886,314.62814027777773,41.638888888888886,314.62814027777773C41.638888888888886,314.62814027777773,41.638888888888886,326.76425138888885,41.638888888888886,326.76425138888885C41.638888888888886,326.76425138888885,41.638888888888886,326.76425138888885,41.638888888888886,326.76425138888885M54.861111111111114,326.76425138888885C54.861111111111114,326.76425138888885,53.113888888888894,326.76425138888885,53.113888888888894,326.76425138888885C53.113888888888894,326.76425138888885,52.075,324.0725847222222,52.075,324.0725847222222C52.075,324.0725847222222,46.03055555555556,324.0725847222222,46.03055555555556,324.0725847222222C46.03055555555556,324.0725847222222,44.94444444444444,326.76425138888885,44.94444444444444,326.76425138888885C44.94444444444444,326.76425138888885,43.19722222222222,326.76425138888885,43.19722222222222,326.76425138888885C43.19722222222222,326.76425138888885,48.108333333333334,314.62814027777773,48.108333333333334,314.62814027777773C48.108333333333334,314.62814027777773,49.95,314.62814027777773,49.95,314.62814027777773C49.95,314.62814027777773,54.861111111111114,326.76425138888885,54.861111111111114,326.76425138888885M51.60277777777778,322.7031402777777C51.60277777777778,322.7031402777777,49.05277777777778,316.18647361111107,49.05277777777778,316.18647361111107C49.05277777777778,316.18647361111107,46.455555555555556,322.7031402777777,46.455555555555556,322.7031402777777C46.455555555555556,322.7031402777777,51.60277777777778,322.7031402777777,51.60277777777778,322.7031402777777C51.60277777777778,322.7031402777777,51.60277777777778,322.7031402777777,51.60277777777778,322.7031402777777M63.17222222222222,321.5225847222222C59.67777777777777,322.6559180555555,55.852777777777774,321.66425138888883,56.041666666666664,317.7920291666666C56.041666666666664,317.7920291666666,56.041666666666664,314.62814027777773,56.041666666666664,314.62814027777773C56.041666666666664,314.62814027777773,57.55277777777777,314.62814027777773,57.55277777777777,314.62814027777773C57.45833333333333,317.65036249999997,57.26944444444444,320.5781402777777,60.386111111111106,320.5781402777777C61.425,320.5781402777777,62.322222222222216,320.4836958333333,63.17222222222222,320.2003625C63.17222222222222,320.2003625,63.17222222222222,314.62814027777773,63.17222222222222,314.62814027777773C63.17222222222222,314.62814027777773,64.68333333333332,314.62814027777773,64.68333333333332,314.62814027777773C64.68333333333332,314.62814027777773,64.68333333333332,326.76425138888885,64.68333333333332,326.76425138888885C64.68333333333332,326.76425138888885,63.17222222222222,326.76425138888885,63.17222222222222,326.76425138888885C63.17222222222222,326.76425138888885,63.17222222222222,321.5225847222222,63.17222222222222,321.5225847222222C63.17222222222222,321.5225847222222,63.17222222222222,321.5225847222222,63.17222222222222,321.5225847222222M77.62222222222222,326.76425138888885C77.62222222222222,326.76425138888885,76.1111111111111,326.76425138888885,76.1111111111111,326.76425138888885C76.1111111111111,326.76425138888885,76.1111111111111,321.19202916666666,76.1111111111111,321.19202916666666C76.1111111111111,321.19202916666666,69.02777777777777,321.19202916666666,69.02777777777777,321.19202916666666C69.02777777777777,321.19202916666666,69.02777777777777,326.76425138888885,69.02777777777777,326.76425138888885C69.02777777777777,326.76425138888885,67.51666666666667,326.76425138888885,67.51666666666667,326.76425138888885C67.51666666666667,326.76425138888885,67.51666666666667,314.62814027777773,67.51666666666667,314.62814027777773C67.51666666666667,314.62814027777773,69.02777777777777,314.62814027777773,69.02777777777777,314.62814027777773C69.02777777777777,314.62814027777773,69.02777777777777,319.8698069444444,69.02777777777777,319.8698069444444C69.02777777777777,319.8698069444444,76.1111111111111,319.8698069444444,76.1111111111111,319.8698069444444C76.1111111111111,319.8698069444444,76.1111111111111,314.62814027777773,76.1111111111111,314.62814027777773C76.1111111111111,314.62814027777773,77.62222222222222,314.62814027777773,77.62222222222222,314.62814027777773C77.62222222222222,314.62814027777773,77.62222222222222,326.76425138888885,77.62222222222222,326.76425138888885C77.62222222222222,326.76425138888885,77.62222222222222,326.76425138888885,77.62222222222222,326.76425138888885M81.91944444444445,326.76425138888885C81.91944444444445,326.76425138888885,80.45555555555556,326.76425138888885,80.45555555555556,326.76425138888885C80.45555555555556,326.76425138888885,80.45555555555556,314.62814027777773,80.45555555555556,314.62814027777773C80.45555555555556,314.62814027777773,81.96666666666667,314.62814027777773,81.96666666666667,314.62814027777773C81.96666666666667,314.62814027777773,81.96666666666667,324.1198069444444,81.96666666666667,324.1198069444444C81.96666666666667,324.1198069444444,88.95555555555556,314.62814027777773,88.95555555555556,314.62814027777773C88.95555555555556,314.62814027777773,90.51388888888889,314.62814027777773,90.51388888888889,314.62814027777773C90.51388888888889,314.62814027777773,90.51388888888889,326.76425138888885,90.51388888888889,326.76425138888885C90.51388888888889,326.76425138888885,89.00277777777778,326.76425138888885,89.00277777777778,326.76425138888885C89.00277777777778,326.76425138888885,89.00277777777778,317.0836958333333,89.00277777777778,317.0836958333333C89.00277777777778,317.0836958333333,81.91944444444445,326.76425138888885,81.91944444444445,326.76425138888885M97.83333333333333,326.76425138888885C97.83333333333333,326.76425138888885,96.32222222222221,326.76425138888885,96.32222222222221,326.76425138888885C96.32222222222221,326.76425138888885,96.32222222222221,315.9975847222222,96.32222222222221,315.9975847222222C96.32222222222221,315.9975847222222,92.44999999999999,315.9975847222222,92.44999999999999,315.9975847222222C92.44999999999999,315.9975847222222,92.44999999999999,314.62814027777773,92.44999999999999,314.62814027777773C92.44999999999999,314.62814027777773,101.65833333333333,314.62814027777773,101.65833333333333,314.62814027777773C101.65833333333333,314.62814027777773,101.65833333333333,315.9975847222222,101.65833333333333,315.9975847222222C101.65833333333333,315.9975847222222,97.83333333333333,315.9975847222222,97.83333333333333,315.9975847222222C97.83333333333333,315.9975847222222,97.83333333333333,326.76425138888885,97.83333333333333,326.76425138888885C97.83333333333333,326.76425138888885,97.83333333333333,326.76425138888885,97.83333333333333,326.76425138888885M111.57499999999999,326.76425138888885C111.57499999999999,326.76425138888885,103.64166666666667,326.76425138888885,103.64166666666667,326.76425138888885C103.64166666666667,326.76425138888885,103.64166666666667,314.62814027777773,103.64166666666667,314.62814027777773C103.64166666666667,314.62814027777773,111.57499999999999,314.62814027777773,111.57499999999999,314.62814027777773C111.57499999999999,314.62814027777773,111.57499999999999,315.9975847222222,111.57499999999999,315.9975847222222C111.57499999999999,315.9975847222222,105.15277777777777,315.9975847222222,105.15277777777777,315.9975847222222C105.15277777777777,315.9975847222222,105.15277777777777,319.8698069444444,105.15277777777777,319.8698069444444C105.15277777777777,319.8698069444444,111.48055555555555,319.8698069444444,111.48055555555555,319.8698069444444C111.48055555555555,319.8698069444444,111.48055555555555,321.2392513888889,111.48055555555555,321.2392513888889C111.48055555555555,321.2392513888889,105.15277777777777,321.2392513888889,105.15277777777777,321.2392513888889C105.15277777777777,321.2392513888889,105.15277777777777,325.3948069444444,105.15277777777777,325.3948069444444C105.15277777777777,325.3948069444444,111.57499999999999,325.3948069444444,111.57499999999999,325.3948069444444C111.57499999999999,325.3948069444444,111.57499999999999,326.76425138888885,111.57499999999999,326.76425138888885C111.57499999999999,326.76425138888885,111.57499999999999,326.76425138888885,111.57499999999999,326.76425138888885M130.2277777777778,320.71980694444443C130.2277777777778,324.4503625,128.00833333333333,327.00036249999994,124.18333333333334,327.00036249999994C120.40555555555557,327.00036249999994,118.18611111111112,324.5448069444444,118.18611111111112,320.71980694444443C118.18611111111112,316.8948069444444,120.40555555555557,314.43925138888886,124.18333333333334,314.43925138888886C128.00833333333333,314.43925138888886,130.2277777777778,316.94202916666666,130.2277777777778,320.71980694444443C130.2277777777778,320.71980694444443,130.2277777777778,320.71980694444443,130.2277777777778,320.71980694444443M119.74444444444445,320.71980694444443C119.74444444444445,323.60036249999996,121.30277777777779,325.6309180555555,124.18333333333334,325.6309180555555C127.0638888888889,325.6309180555555,128.66944444444445,323.6475847222222,128.66944444444445,320.71980694444443C128.66944444444445,317.83925138888884,127.01666666666668,315.76147361111106,124.18333333333334,315.76147361111106C121.25555555555556,315.76147361111106,119.74444444444445,317.7920291666666,119.74444444444445,320.71980694444443C119.74444444444445,320.71980694444443,119.74444444444445,320.71980694444443,119.74444444444445,320.71980694444443M141.23055555555555,323.0809180555555C141.23055555555555,325.34758472222217,139.8138888888889,326.71702916666663,137.40555555555557,326.76425138888885C137.40555555555557,326.76425138888885,132.54166666666666,326.76425138888885,132.54166666666666,326.76425138888885C132.54166666666666,326.76425138888885,132.54166666666666,314.62814027777773,132.54166666666666,314.62814027777773C132.54166666666666,314.62814027777773,140.42777777777778,314.62814027777773,140.42777777777778,314.62814027777773C140.42777777777778,314.62814027777773,140.42777777777778,315.9975847222222,140.42777777777778,315.9975847222222C140.42777777777778,315.9975847222222,134.05277777777778,315.9975847222222,134.05277777777778,315.9975847222222C134.05277777777778,315.9975847222222,134.05277777777778,319.4448069444444,134.05277777777778,319.4448069444444C134.05277777777778,319.4448069444444,137.40555555555557,319.4448069444444,137.40555555555557,319.4448069444444C139.76666666666665,319.4920291666666,141.23055555555555,320.81425138888886,141.23055555555555,323.0809180555555C141.23055555555555,323.0809180555555,141.23055555555555,323.0809180555555,141.23055555555555,323.0809180555555M139.67222222222222,323.12814027777773C139.67222222222222,321.80591805555554,138.63333333333333,320.81425138888886,137.21666666666667,320.81425138888886C137.21666666666667,320.81425138888886,134.05277777777778,320.81425138888886,134.05277777777778,320.81425138888886C134.05277777777778,320.81425138888886,134.05277777777778,325.3948069444444,134.05277777777778,325.3948069444444C136.69722222222222,325.44202916666666,139.71944444444443,325.67814027777774,139.67222222222222,323.12814027777773C139.67222222222222,323.12814027777773,139.67222222222222,323.12814027777773,139.67222222222222,323.12814027777773M156.38888888888889,314.62814027777773C156.38888888888889,314.62814027777773,157.9,314.62814027777773,157.9,314.62814027777773C157.9,314.62814027777773,157.9,325.3948069444444,157.9,325.3948069444444C157.9,325.3948069444444,158.98611111111111,325.3948069444444,158.98611111111111,325.3948069444444C158.98611111111111,325.3948069444444,158.98611111111111,328.9836958333333,158.98611111111111,328.9836958333333C158.98611111111111,328.9836958333333,157.475,328.9836958333333,157.475,328.9836958333333C157.475,328.9836958333333,157.475,326.76425138888885,157.475,326.76425138888885C157.475,326.76425138888885,143.30833333333334,326.76425138888885,143.30833333333334,326.76425138888885C143.30833333333334,326.76425138888885,143.30833333333334,314.62814027777773,143.30833333333334,314.62814027777773C143.30833333333334,314.62814027777773,144.81944444444443,314.62814027777773,144.81944444444443,314.62814027777773C144.81944444444443,314.62814027777773,144.81944444444443,325.3948069444444,144.81944444444443,325.3948069444444C144.81944444444443,325.3948069444444,149.8722222222222,325.3948069444444,149.8722222222222,325.3948069444444C149.8722222222222,325.3948069444444,149.8722222222222,314.62814027777773,149.8722222222222,314.62814027777773C149.8722222222222,314.62814027777773,151.3361111111111,314.62814027777773,151.3361111111111,314.62814027777773C151.3361111111111,314.62814027777773,151.3361111111111,325.3948069444444,151.3361111111111,325.3948069444444C151.3361111111111,325.3948069444444,156.38888888888889,325.3948069444444,156.38888888888889,325.3948069444444C156.38888888888889,325.3948069444444,156.38888888888889,314.62814027777773,156.38888888888889,314.62814027777773C156.38888888888889,314.62814027777773,156.38888888888889,314.62814027777773,156.38888888888889,314.62814027777773M168.85555555555553,326.76425138888885C168.85555555555553,326.76425138888885,160.9222222222222,326.76425138888885,160.9222222222222,326.76425138888885C160.9222222222222,326.76425138888885,160.9222222222222,314.62814027777773,160.9222222222222,314.62814027777773C160.9222222222222,314.62814027777773,168.85555555555553,314.62814027777773,168.85555555555553,314.62814027777773C168.85555555555553,314.62814027777773,168.85555555555553,315.9975847222222,168.85555555555553,315.9975847222222C168.85555555555553,315.9975847222222,162.4333333333333,315.9975847222222,162.4333333333333,315.9975847222222C162.4333333333333,315.9975847222222,162.4333333333333,319.8698069444444,162.4333333333333,319.8698069444444C162.4333333333333,319.8698069444444,168.7611111111111,319.8698069444444,168.7611111111111,319.8698069444444C168.7611111111111,319.8698069444444,168.7611111111111,321.2392513888889,168.7611111111111,321.2392513888889C168.7611111111111,321.2392513888889,162.4333333333333,321.2392513888889,162.4333333333333,321.2392513888889C162.4333333333333,321.2392513888889,162.4333333333333,325.3948069444444,162.4333333333333,325.3948069444444C162.4333333333333,325.3948069444444,168.85555555555553,325.3948069444444,168.85555555555553,325.3948069444444C168.85555555555553,325.3948069444444,168.85555555555553,326.76425138888885,168.85555555555553,326.76425138888885C168.85555555555553,326.76425138888885,168.85555555555553,326.76425138888885,168.85555555555553,326.76425138888885M179.19722222222222,326.76425138888885C179.19722222222222,326.76425138888885,171.26388888888889,326.76425138888885,171.26388888888889,326.76425138888885C171.26388888888889,326.76425138888885,171.26388888888889,314.62814027777773,171.26388888888889,314.62814027777773C171.26388888888889,314.62814027777773,179.19722222222222,314.62814027777773,179.19722222222222,314.62814027777773C179.19722222222222,314.62814027777773,179.19722222222222,315.9975847222222,179.19722222222222,315.9975847222222C179.19722222222222,315.9975847222222,172.775,315.9975847222222,172.775,315.9975847222222C172.775,315.9975847222222,172.775,319.8698069444444,172.775,319.8698069444444C172.775,319.8698069444444,179.1027777777778,319.8698069444444,179.1027777777778,319.8698069444444C179.1027777777778,319.8698069444444,179.1027777777778,321.2392513888889,179.1027777777778,321.2392513888889C179.1027777777778,321.2392513888889,172.775,321.2392513888889,172.775,321.2392513888889C172.775,321.2392513888889,172.775,325.3948069444444,172.775,325.3948069444444C172.775,325.3948069444444,179.19722222222222,325.3948069444444,179.19722222222222,325.3948069444444C179.19722222222222,325.3948069444444,179.19722222222222,326.76425138888885,179.19722222222222,326.76425138888885C179.19722222222222,326.76425138888885,179.19722222222222,326.76425138888885,179.19722222222222,326.76425138888885M185.43055555555554,328.9836958333333C185.43055555555554,328.9836958333333,185.43055555555554,325.5364736111111,185.43055555555554,325.5364736111111C187.83888888888887,325.44202916666666,187.93333333333334,322.89202916666665,188.21666666666667,320.71980694444443C188.21666666666667,320.71980694444443,188.9722222222222,314.62814027777773,188.9722222222222,314.62814027777773C188.9722222222222,314.62814027777773,196.3861111111111,314.62814027777773,196.3861111111111,314.62814027777773C196.3861111111111,314.62814027777773,196.3861111111111,325.3948069444444,196.3861111111111,325.3948069444444C196.3861111111111,325.3948069444444,197.51944444444445,325.3948069444444,197.51944444444445,325.3948069444444C197.51944444444445,325.3948069444444,197.51944444444445,328.9836958333333,197.51944444444445,328.9836958333333C197.51944444444445,328.9836958333333,196.00833333333333,328.9836958333333,196.00833333333333,328.9836958333333C196.00833333333333,328.9836958333333,196.00833333333333,326.76425138888885,196.00833333333333,326.76425138888885C196.00833333333333,326.76425138888885,186.94166666666666,326.76425138888885,186.94166666666666,326.76425138888885C186.94166666666666,326.76425138888885,186.94166666666666,328.9836958333333,186.94166666666666,328.9836958333333C186.94166666666666,328.9836958333333,185.43055555555554,328.9836958333333,185.43055555555554,328.9836958333333C185.43055555555554,328.9836958333333,185.43055555555554,328.9836958333333,185.43055555555554,328.9836958333333M190.29444444444442,315.9975847222222C189.72777777777776,319.35036249999996,190.0111111111111,323.6475847222222,187.8861111111111,325.3948069444444C187.8861111111111,325.3948069444444,194.875,325.3948069444444,194.875,325.3948069444444C194.875,325.3948069444444,194.875,315.9975847222222,194.875,315.9975847222222C194.875,315.9975847222222,190.29444444444442,315.9975847222222,190.29444444444442,315.9975847222222C190.29444444444442,315.9975847222222,190.29444444444442,315.9975847222222,190.29444444444442,315.9975847222222M207.34166666666667,326.76425138888885C207.34166666666667,326.76425138888885,199.40833333333333,326.76425138888885,199.40833333333333,326.76425138888885C199.40833333333333,326.76425138888885,199.40833333333333,314.62814027777773,199.40833333333333,314.62814027777773C199.40833333333333,314.62814027777773,207.34166666666667,314.62814027777773,207.34166666666667,314.62814027777773C207.34166666666667,314.62814027777773,207.34166666666667,315.9975847222222,207.34166666666667,315.9975847222222C207.34166666666667,315.9975847222222,200.91944444444445,315.9975847222222,200.91944444444445,315.9975847222222C200.91944444444445,315.9975847222222,200.91944444444445,319.8698069444444,200.91944444444445,319.8698069444444C200.91944444444445,319.8698069444444,207.24722222222223,319.8698069444444,207.24722222222223,319.8698069444444C207.24722222222223,319.8698069444444,207.24722222222223,321.2392513888889,207.24722222222223,321.2392513888889C207.24722222222223,321.2392513888889,200.91944444444445,321.2392513888889,200.91944444444445,321.2392513888889C200.91944444444445,321.2392513888889,200.91944444444445,325.3948069444444,200.91944444444445,325.3948069444444C200.91944444444445,325.3948069444444,207.34166666666667,325.3948069444444,207.34166666666667,325.3948069444444C207.34166666666667,325.3948069444444,207.34166666666667,326.76425138888885,207.34166666666667,326.76425138888885C207.34166666666667,326.76425138888885,207.34166666666667,326.76425138888885,207.34166666666667,326.76425138888885M208.89999999999998,327.00036249999994C208.89999999999998,327.00036249999994,208.89999999999998,325.6309180555555,208.89999999999998,325.6309180555555C211.35555555555553,325.5364736111111,211.40277777777777,322.9864736111111,211.6861111111111,320.71980694444443C211.6861111111111,320.71980694444443,212.44166666666663,314.62814027777773,212.44166666666663,314.62814027777773C212.44166666666663,314.62814027777773,219.85555555555553,314.62814027777773,219.85555555555553,314.62814027777773C219.85555555555553,314.62814027777773,219.85555555555553,326.76425138888885,219.85555555555553,326.76425138888885C219.85555555555553,326.76425138888885,218.34444444444443,326.76425138888885,218.34444444444443,326.76425138888885C218.34444444444443,326.76425138888885,218.34444444444443,315.9975847222222,218.34444444444443,315.9975847222222C218.34444444444443,315.9975847222222,213.76388888888886,315.9975847222222,213.76388888888886,315.9975847222222C213.00833333333333,319.8698069444444,213.575,325.01702916666665,210.6,326.71702916666663C209.9861111111111,326.9059180555555,209.60833333333332,326.9531402777777,208.89999999999998,327.00036249999994C208.89999999999998,327.00036249999994,208.89999999999998,327.00036249999994,208.89999999999998,327.00036249999994M234.25833333333333,320.71980694444443C234.25833333333333,324.4503625,232.0388888888889,327.00036249999994,228.21388888888887,327.00036249999994C224.4361111111111,327.00036249999994,222.21666666666667,324.5448069444444,222.21666666666667,320.71980694444443C222.21666666666667,316.8948069444444,224.4361111111111,314.43925138888886,228.21388888888887,314.43925138888886C232.0388888888889,314.43925138888886,234.25833333333333,316.94202916666666,234.25833333333333,320.71980694444443C234.25833333333333,320.71980694444443,234.25833333333333,320.71980694444443,234.25833333333333,320.71980694444443M223.77499999999998,320.71980694444443C223.77499999999998,323.60036249999996,225.33333333333331,325.6309180555555,228.21388888888887,325.6309180555555C231.09444444444443,325.6309180555555,232.7,323.6475847222222,232.7,320.71980694444443C232.7,317.83925138888884,231.04722222222222,315.76147361111106,228.21388888888887,315.76147361111106C225.2861111111111,315.76147361111106,223.77499999999998,317.7920291666666,223.77499999999998,320.71980694444443C223.77499999999998,320.71980694444443,223.77499999999998,320.71980694444443,223.77499999999998,320.71980694444443M247.00833333333333,325.6309180555555C248.47222222222223,325.67814027777774,249.7,324.8281402777777,250.31388888888887,323.8836958333333C250.31388888888887,323.8836958333333,251.6361111111111,324.59202916666663,251.6361111111111,324.59202916666663C248.51944444444445,329.1725847222222,240.775,326.6698069444444,240.775,320.71980694444443C240.775,314.7698069444444,248.61388888888888,312.31425138888886,251.58888888888887,316.84758472222217C251.58888888888887,316.84758472222217,250.31388888888887,317.55591805555554,250.31388888888887,317.55591805555554C249.7,316.6114736111111,248.42499999999998,315.76147361111106,247.00833333333333,315.76147361111106C244.12777777777777,315.76147361111106,242.33333333333331,317.6975847222222,242.33333333333331,320.71980694444443C242.33333333333331,323.7420291666666,244.12777777777777,325.4892513888889,247.00833333333333,325.6309180555555C247.00833333333333,325.6309180555555,247.00833333333333,325.6309180555555,247.00833333333333,325.6309180555555M261.45833333333337,326.76425138888885C261.45833333333337,326.76425138888885,253.525,326.76425138888885,253.525,326.76425138888885C253.525,326.76425138888885,253.525,314.62814027777773,253.525,314.62814027777773C253.525,314.62814027777773,261.45833333333337,314.62814027777773,261.45833333333337,314.62814027777773C261.45833333333337,314.62814027777773,261.45833333333337,315.9975847222222,261.45833333333337,315.9975847222222C261.45833333333337,315.9975847222222,255.03611111111113,315.9975847222222,255.03611111111113,315.9975847222222C255.03611111111113,315.9975847222222,255.03611111111113,319.8698069444444,255.03611111111113,319.8698069444444C255.03611111111113,319.8698069444444,261.3638888888889,319.8698069444444,261.3638888888889,319.8698069444444C261.3638888888889,319.8698069444444,261.3638888888889,321.2392513888889,261.3638888888889,321.2392513888889C261.3638888888889,321.2392513888889,255.03611111111113,321.2392513888889,255.03611111111113,321.2392513888889C255.03611111111113,321.2392513888889,255.03611111111113,325.3948069444444,255.03611111111113,325.3948069444444C255.03611111111113,325.3948069444444,261.45833333333337,325.3948069444444,261.45833333333337,325.3948069444444C261.45833333333337,325.3948069444444,261.45833333333337,326.76425138888885,261.45833333333337,326.76425138888885C261.45833333333337,326.76425138888885,261.45833333333337,326.76425138888885,261.45833333333337,326.76425138888885M265.3305555555555,326.76425138888885C265.3305555555555,326.76425138888885,263.8666666666667,326.76425138888885,263.8666666666667,326.76425138888885C263.8666666666667,326.76425138888885,263.8666666666667,314.62814027777773,263.8666666666667,314.62814027777773C263.8666666666667,314.62814027777773,265.3777777777778,314.62814027777773,265.3777777777778,314.62814027777773C265.3777777777778,314.62814027777773,265.3777777777778,324.1198069444444,265.3777777777778,324.1198069444444C265.3777777777778,324.1198069444444,272.3666666666667,314.62814027777773,272.3666666666667,314.62814027777773C272.3666666666667,314.62814027777773,273.925,314.62814027777773,273.925,314.62814027777773C273.925,314.62814027777773,273.925,326.76425138888885,273.925,326.76425138888885C273.925,326.76425138888885,272.4138888888889,326.76425138888885,272.4138888888889,326.76425138888885C272.4138888888889,326.76425138888885,272.4138888888889,317.0836958333333,272.4138888888889,317.0836958333333C272.4138888888889,317.0836958333333,265.3305555555555,326.76425138888885,265.3305555555555,326.76425138888885M266.3694444444444,311.7475847222222C267.21944444444443,313.4475847222222,270.5722222222222,313.4475847222222,271.4222222222222,311.7475847222222C271.4222222222222,311.7475847222222,272.0833333333333,312.31425138888886,272.0833333333333,312.31425138888886C270.95,314.2975847222222,266.84166666666664,314.43925138888886,265.7083333333333,312.31425138888886C265.7083333333333,312.31425138888886,266.3694444444444,311.7475847222222,266.3694444444444,311.7475847222222M283.4638888888889,321.5225847222222C279.9694444444445,322.6559180555555,276.1444444444445,321.66425138888883,276.33333333333337,317.7920291666666C276.33333333333337,317.7920291666666,276.33333333333337,314.62814027777773,276.33333333333337,314.62814027777773C276.33333333333337,314.62814027777773,277.8444444444445,314.62814027777773,277.8444444444445,314.62814027777773C277.75000000000006,317.65036249999997,277.56111111111113,320.5781402777777,280.6777777777778,320.5781402777777C281.7166666666667,320.5781402777777,282.61388888888894,320.4836958333333,283.4638888888889,320.2003625C283.4638888888889,320.2003625,283.4638888888889,314.62814027777773,283.4638888888889,314.62814027777773C283.4638888888889,314.62814027777773,284.975,314.62814027777773,284.975,314.62814027777773C284.975,314.62814027777773,284.975,326.76425138888885,284.975,326.76425138888885C284.975,326.76425138888885,283.4638888888889,326.76425138888885,283.4638888888889,326.76425138888885C283.4638888888889,326.76425138888885,283.4638888888889,321.5225847222222,283.4638888888889,321.5225847222222C283.4638888888889,321.5225847222222,283.4638888888889,321.5225847222222,283.4638888888889,321.5225847222222M298.1972222222222,326.76425138888885C298.1972222222222,326.76425138888885,296.45,326.76425138888885,296.45,326.76425138888885C296.45,326.76425138888885,295.4111111111111,324.0725847222222,295.4111111111111,324.0725847222222C295.4111111111111,324.0725847222222,289.3666666666667,324.0725847222222,289.3666666666667,324.0725847222222C289.3666666666667,324.0725847222222,288.28055555555557,326.76425138888885,288.28055555555557,326.76425138888885C288.28055555555557,326.76425138888885,286.5333333333333,326.76425138888885,286.5333333333333,326.76425138888885C286.5333333333333,326.76425138888885,291.44444444444446,314.62814027777773,291.44444444444446,314.62814027777773C291.44444444444446,314.62814027777773,293.2861111111111,314.62814027777773,293.2861111111111,314.62814027777773C293.2861111111111,314.62814027777773,298.1972222222222,326.76425138888885,298.1972222222222,326.76425138888885M294.93888888888887,322.7031402777777C294.93888888888887,322.7031402777777,292.38888888888886,316.18647361111107,292.38888888888886,316.18647361111107C292.38888888888886,316.18647361111107,289.79166666666663,322.7031402777777,289.79166666666663,322.7031402777777C289.79166666666663,322.7031402777777,294.93888888888887,322.7031402777777,294.93888888888887,322.7031402777777C294.93888888888887,322.7031402777777,294.93888888888887,322.7031402777777,294.93888888888887,322.7031402777777M305.51666666666665,325.6309180555555C306.98055555555555,325.67814027777774,308.20833333333337,324.8281402777777,308.82222222222225,323.8836958333333C308.82222222222225,323.8836958333333,310.14444444444445,324.59202916666663,310.14444444444445,324.59202916666663C307.02777777777777,329.1725847222222,299.28333333333336,326.6698069444444,299.28333333333336,320.71980694444443C299.28333333333336,314.7698069444444,307.12222222222226,312.31425138888886,310.09722222222223,316.84758472222217C310.09722222222223,316.84758472222217,308.82222222222225,317.55591805555554,308.82222222222225,317.55591805555554C308.20833333333337,316.6114736111111,306.93333333333334,315.76147361111106,305.51666666666665,315.76147361111106C302.6361111111111,315.76147361111106,300.8416666666667,317.6975847222222,300.8416666666667,320.71980694444443C300.8416666666667,323.7420291666666,302.6361111111111,325.4892513888889,305.51666666666665,325.6309180555555C305.51666666666665,325.6309180555555,305.51666666666665,325.6309180555555,305.51666666666665,325.6309180555555" transform="matrix(0,-1,1,0,-294,348)" id="pathSjvrvpbo528"></path></defs><use xlink:href="#pathSjvrvpbo51r" filter="url('#Sjvrvpbo51p')" stroke="none" style="fill-opacity: 0.75;"></use><use xlink:href="#pathSjvrvpbo51r" fill="#ffe600" stroke="none" style="fill-opacity: 0.9;"></use><use xlink:href="#pathSjvrvpbo51r" fill="url('#linearGradientSjvrvpbo51w')" stroke="none" style=""></use><path d="M 0 9 L 60 9 A 8 9 0 0 1 68 18 L 68 365 L 67 365 L 67 18 A 7 6 0 0 0 60 12 L 0 12 Z" stroke="rgba(255,255,255,0.175)" fill="rgba(255,255,255,0.175)" filter="url('#Sjvrvpbo522')" mask="url('#maskSjvrvpbo526')" style="stroke-width: 1;" class="rhlp-shape" transform="matrix(-1,0,0,1,78,0)"></path><use xlink:href="#pathSjvrvpbo528" fill="rgba(0,0,0,0.2)" style="stroke-width: 0;"></use><use xlink:href="#pathSjvrvpbo528" fill="#333e48" transform="matrix(1,0,0,1,0,1)" style="stroke-width: 0;"></use><g stroke="#000000" fill="none" style="stroke-width: 1.1; fill-rule: evenodd; stroke-opacity: 0.2;" class="rhlp-shape" transform="matrix(-1,0,0,1,78,0)"><polyline points="45.6,20,49.8,24.2,45.6,28.4"></polyline><polyline points="49.2,20,53.4,24.2,49.2,28.4"></polyline></g><g stroke="#333e48" fill="none" style="stroke-width: 1.1; fill-rule: evenodd; stroke-opacity: 1;" class="rhlp-shape" transform="matrix(-1,0,0,1,78,0)"><polyline points="45.6,21,49.8,25.2,45.6,29.4"></polyline><polyline points="49.2,21,53.4,25.2,49.2,29.4"></polyline></g></svg>